{"title":"Rock of Ages - Extended Cut  (HD 1080p).m4v","uid":8093291,"size":10691118579,"categoryP":"video","categoryS":"hd___movies","magnet":"?xt=urn:btih:155498f8d8a5b76141e3168010c61cbea22d792c&amp;dn=Rock+of+Ages+-+Extended+Cut++%28HD+1080p%29.m4v&amp;tr=udp%3A%2F%2Ftracker.openbittorrent.com%3A80&amp;tr=udp%3A%2F%2Fopen.demonii.com%3A1337&amp;tr=udp%3A%2F%2Ftracker.coppersurfer.tk%3A6969&amp;tr=udp%3A%2F%2Fexodus.desync.com%3A6969","seeders":1,"leechers":0,"uploader":"arctictpb","files":1,"time":1359768845,"description":"Complete name                            : Rock of Ages - Extended Cut  (HD 1080p).m4v\nFormat                                   : MPEG-4\nFormat profile                           : Base Media / Version 2\nCodec ID                                 : mp42\nFile size                                : 9.96 GiB\nDuration                                 : 2h 16mn\nOverall bit rate mode                    : Variable\nOverall bit rate                         : 10.5 Mbps\nMovie name                               : Rock of Ages\nPerformer                                : Tom Cruise, Bryan Cranston, Malin Ã…kerman, Russell Brand, Catherine Zeta-Jones, Alec Baldwin, Paul Giamatti, Diego Boneta, Julianne Hough, Erica Frene, Shane Hartline, James Martin Kelly\nGenre                                    : Comedy, Drama, Musical, Romance\nRecorded date                            : 2012-06-15\nEncoded date                             : UTC 2012-10-29 19:53:00\nTagged date                              : UTC 2012-11-10 21:28:41\nWriting application                      : HandBrake 5029svn 2012102701\nCover                                    : Yes\ndesc                                     : Young Drew Boley (Diego Boneta) and Sherrie Christian (Julianne Hough) fall in love during the rock music scene of 1987.\n\nVideo #1\nID                                       : 1\nFormat                                   : AVC\nFormat/Info                              : Advanced Video Codec\nFormat profile                           : &lt;a class=&quot;__cf_email__&quot; href=&quot;/cdn-cgi/l/email-protection&quot; data-cfemail=&quot;a2eacbc5cae2ee968c92&quot;&gt;[email&amp;#160;protected]&lt;/a&gt;&lt;script cf-hash='f9e31' type=&quot;text/javascript&quot;&gt;\n/* &lt;![CDATA[ */!function(){try{var t=&quot;currentScript&quot;in document?document.currentScript:function(){for(var t=document.getElementsByTagName(&quot;script&quot;),e=t.length;e--;)if(t[e].getAttribute(&quot;cf-hash&quot;))return t[e]}();if(t&amp;&amp;t.previousSibling){var e,r,n,i,c=t.previousSibling,a=c.getAttribute(&quot;data-cfemail&quot;);if(a){for(e=&quot;&quot;,r=parseInt(a.substr(0,2),16),n=2;a.length-n;n+=2)i=parseInt(a.substr(n,2),16)^r,e+=String.fromCharCode(i);e=document.createTextNode(e),c.parentNode.replaceChild(e,c)}}}catch(u){}}();/* ]]&gt; */&lt;/script&gt;\nFormat settings, CABAC                   : Yes\nFormat settings, ReFrames                : 4 frames\nCodec ID                                 : avc1\nCodec ID/Info                            : Advanced Video Coding\nDuration                                 : 2h 16mn\nBit rate mode                            : Variable\nBit rate                                 : 9 619 Kbps\nWidth                                    : 1 920 pixels\nHeight                                   : 800 pixels\nDisplay aspect ratio                     : 2.40:1\nFrame rate mode                          : Variable\nFrame rate                               : 23.976 fps\nMinimum frame rate                       : 23.810 fps\nMaximum frame rate                       : 24.390 fps\nColor space                              : YUV\nChroma subsampling                       : 4:2:0\nBit depth                                : 8 bits\nScan type                                : Progressive\nBits/(Pixel*Frame)                       : 0.261\nStream size                              : 9.15 GiB (92%)\nWriting library                          : x264 core 128\nEncoding settings                        : cabac=1 / ref=4 / deblock=1:0:0 / analyse=0x3:0x133 / me=umh / subme=10 / psy=1 / psy_rd=1.00:0.15 / mixed_ref=1 / me_range=32 / chroma_me=1 / trellis=2 / 8x8dct=1 / cqm=0 / deadzone=21,11 / fast_pskip=1 / chroma_qp_offset=-3 / threads=12 / lookahead_threads=2 / sliced_threads=0 / nr=0 / decimate=1 / interlaced=0 / bluray_compat=0 / constrained_intra=0 / bframes=4 / b_pyramid=2 / b_adapt=2 / b_bias=0 / direct=3 / weightb=1 / open_gop=0 / weightp=2 / keyint=240 / keyint_min=24 / scenecut=40 / intra_refresh=0 / rc_lookahead=60 / rc=crf / mbtree=1 / crf=18.0 / qcomp=0.60 / qpmin=3 / qpmax=69 / qpstep=4 / ip_ratio=1.40 / aq=1:1.00\nEncoded date                             : UTC 2012-10-29 19:53:00\nTagged date                              : UTC 2012-10-30 03:24:45\nColor primaries                          : BT.709\nTransfer characteristics                 : BT.709\nMatrix coefficients                      : BT.709\n\nAudio #1\nID                                       : 2\nFormat                                   : AAC\nFormat/Info                              : Advanced Audio Codec\nFormat profile                           : LC\nCodec ID                                 : 40\nDuration                                 : 2h 16mn\nBit rate mode                            : Variable\nBit rate                                 : 192 Kbps\nMaximum bit rate                         : 327 Kbps\nChannel(s)                               : 2 channels\nChannel positions                        : Front: L R\nSampling rate                            : 48.0 KHz\nCompression mode                         : Lossy\nDelay relative to video                  : 83ms\nStream size                              : 191 MiB (2%)\nLanguage                                 : English\nEncoded date                             : UTC 2012-10-29 19:53:00\nTagged date                              : UTC 2012-10-30 03:24:45\n\nAudio #2\nID                                       : 3\nFormat                                   : AC-3\nFormat/Info                              : Audio Coding 3\nMode extension                           : CM (complete main)\nFormat settings, Endianness              : Big\nCodec ID                                 : ac-3\nDuration                                 : 2h 16mn\nBit rate mode                            : Constant\nBit rate                                 : 640 Kbps\nChannel(s)                               : 6 channels\nChannel positions                        : Front: L C R, Side: L R, LFE\nSampling rate                            : 48.0 KHz\nBit depth                                : 16 bits\nCompression mode                         : Lossy\nDelay relative to video                  : 83ms\nStream size                              : 624 MiB (6%)\nLanguage                                 : English\nEncoded date                             : UTC 2012-10-29 19:53:00\nTagged date                              : UTC 2012-10-30 03:24:45","torrent":{"xt":"urn:btih:155498f8d8a5b76141e3168010c61cbea22d792c","amp;dn":"Rock+of+Ages+-+Extended+Cut++%28HD+1080p%29.m4v","amp;tr":["udp%3A%2F%2Ftracker.openbittorrent.com%3A80","udp%3A%2F%2Fopen.demonii.com%3A1337","udp%3A%2F%2Ftracker.coppersurfer.tk%3A6969","udp%3A%2F%2Fexodus.desync.com%3A6969"],"infoHash":"155498f8d8a5b76141e3168010c61cbea22d792c","infoHashBuffer":{"type":"Buffer","data":[21,84,152,248,216,165,183,97,65,227,22,128,16,198,28,190,162,45,121,44]},"announce":[],"urlList":[]}}